<svg width="13" height="14" viewBox="0 0 13 14" fill="none" xmlns="http://www.w3.org/2000/svg">
<path d="M8.375 6.33188H5.375C4.875 6.33188 4.375 6.87868 4.375 7.42549V7.97229M8.375 6.33188L7.375 5.23828M8.375 6.33188L7.375 7.42549" stroke="black" stroke-width="0.7" stroke-linecap="round" stroke-linejoin="round"/>
<path d="M1.08774 6.64707L6.16374 1.09595C6.21999 1.03451 6.29624 1 6.37574 1C6.45524 1 6.53149 1.03451 6.58774 1.09595L11.6637 6.64707C11.7199 6.70859 11.7515 6.79197 11.7515 6.87892C11.7515 6.96586 11.7199 7.04924 11.6637 7.11076L6.58774 12.6619C6.53149 12.7233 6.45524 12.7578 6.37574 12.7578C6.29624 12.7578 6.21999 12.7233 6.16374 12.6619L1.08774 7.11076C1.03156 7.04924 1 6.96586 1 6.87892C1 6.79197 1.03156 6.70859 1.08774 6.64707Z" stroke="black" stroke-width="0.7" stroke-linejoin="round"/>
</svg>
